<?xml version="1.0" encoding="utf-8"?>
<!-- Generator: Adobe Illustrator 24.1.1, SVG Export Plug-In . SVG Version: 6.00 Build 0)  -->
<svg version="1.1" id="Layer_1" xmlns="http://www.w3.org/2000/svg" xmlns:xlink="http://www.w3.org/1999/xlink" x="0px" y="0px"
	 viewBox="0 0 512 512" style="enable-background:new 0 0 512 512;" xml:space="preserve">
<g>
	<path d="M428.9,256l70.5-79.1l-103.5-22.6l10.6-105.5l-97.1,42.6L256,0l-53.4,91.4l-97.1-42.6l10.6,105.5L12.5,176.8L83,255.9
		l-70.5,79.3l103.6,22.4l-10.7,105.5l97.1-42.5L256,512l53.4-91.4l97.1,42.5l-10.6-105.3l103.6-22.6L428.9,256z M463.2,315.6
		l-61.1-20.9l-40.5-52.7l53.9,20.1L463.2,315.6z M472.9,185.5l-55.5,62.3L352,223.4l39.3-55.7L472.9,185.5z M381.5,157.3l-32.8,46.5
		l1.9-67.4l38.1-51.5L381.5,157.3z M311,106.1l65.9-28.8l-37.8,50.7l-62.7,22.4L311,106.1z M336.3,143.9l-2.1,77.9L263,245.8V170
		L336.3,143.9z M256,27.9l42,71.9l-42,53.7l-42.1-53.7L256,27.9z M201,106.1l34.6,44.2l-62.9-22.4l-37.6-50.7L201,106.1z M248.9,170
		v75.8l-71.2-23.9l-2.2-77.9L248.9,170z M161.3,136.3l1.8,67.4l-32.7-46.5l-7.3-72.4L161.3,136.3z M39,185.4l81.6-17.7l39.3,55.7
		l-65.3,24.2L39,185.4z M96.5,261.9l53.9-20l-40.6,52.7l-61,20.9L96.5,261.9z M51.8,329.4l62.5-21.3l65,19.1l-56,17.8L51.8,329.4z
		 M121.8,440.5l8.3-83.1l66.4-21l1.7,70.6L121.8,440.5z M200.6,318.7l-74.7-22l47.5-61.7l71.2,24L200.6,318.7z M248.9,472.2
		l-36.5-62.7l-1.4-59.1l37.9,55.4V472.2z M212,327.1l44-59.8l44,59.8l-44,64.1L212,327.1z M299.6,409.5L263,472.2v-66.4l38-55.4
		L299.6,409.5z M267.3,259.1l71.3-24l47.4,61.7l-74.7,22L267.3,259.1z M313.7,407l1.7-70.6l66.4,21l8.2,83.2L313.7,407z
		 M388.7,344.9l-56-17.8l65-19.1l62.5,21.4L388.7,344.9z"/>
</g>
</svg>
